<svg height="512" viewBox="0 0 54 60" width="512" xmlns="http://www.w3.org/2000/svg"><g id="Page-1" fill="none" fill-rule="evenodd"><g id="004---Banana-Warrior" fill-rule="nonzero" transform="translate(-1 -1)"><path id="Shape" d="m51 31.23v20.77c0 1.1045695-.8954305 2-2 2s-2-.8954305-2-2v-41.13h4z" fill="#91562d"/><path id="Shape" d="m7 42c.12755553 1.5154874-.98635485 2.8521798-2.5 3-.48491869-.0028661-.95556171-.1644301-1.34-.46-.76131175-.6196733-1.190222-1.5588388-1.16-2.54-.12755553-1.5154874.98635485-2.8521798 2.5-3 1.51364515.1478202 2.62755553 1.4845126 2.5 3z" fill="#fdd834"/><path id="Shape" d="m37.33 40.66c-.52.82-1.08 1.62-1.67 2.4-3.3 4.31-7.84 7.9-13.2 9.18l-.54.12c-4.880197.9218799-9.9260541-.1593751-14-3-1.88211733-1.2886288-3.50106656-2.9245481-4.77-4.82.387157.2976434.86165412.4593239 1.35.46 1.51364515-.1478202 2.62755553-1.4845126 2.5-3 .12755553-1.5154874-.98635485-2.8521798-2.5-3 4.42034578-.4523876 8.6530154-2.0215725 12.3-4.56 2.4152951-1.9625631 4.2680452-4.5295018 5.37-7.44h.33c1.342931-.0785479 2.5159743-.9348695 3-2.19.4840257 1.2551305 1.657069 2.1114521 3 2.19 1.93 0 3.5-2 3.5-4.5s-1.43-4.32-3.25-4.5l-3.25 2.19-.62-.62.09-.25c.54-1.58 1.08-3.16 1.65-4.73 1-2.74 2.4-5.51 4.82-7.22.3280917-.21928853.4965368-.61102123.43-1l-.63-3.17c-.0608366-.29771922.016999-.6069489.2115328-.84038937.1945337-.23344047.4846581-.3657628.7884672-.35961063h3.06c.3038091-.00615217.5939335.12617016.7884672.35961063.1945338.23344047.2723694.54267015.2115328.84038937l-.41 2.93c-.0740732.53346258.0701377 1.07425356.4 1.5 2.32 3.06 11.52 16.44 1.04 33.03z" fill="#ffeb3a"/><path id="Shape" d="m36.25 7.63c-.3298623-.42574644-.4740732-.96653742-.4-1.5l.41-2.93c.0608366-.29771922-.016999-.6069489-.2115328-.84038937-.1945337-.23344047-.4846581-.3657628-.7884672-.35961063h-3c.3038091-.00615217.5939335.12617016.7884672.35961063.1945338.23344047.2723694.54267015.2115328.84038937l-.41 2.93c-.0740732.53346258.0701377 1.07425356.4 1.5 2.36 3.06 11.56 16.44 1.08 33-.52.82-1.08 1.62-1.67 2.4-3.3 4.31-7.84 7.9-13.2 9.18l-.54.12c-.59.12-1.19.2-1.78.26 1.5977117.1333325 3.2061765.0458428 4.78-.26l.54-.12c5.36-1.28 9.9-4.87 13.2-9.18.59-.78 1.15-1.58 1.67-2.4 10.48-16.56 1.28-29.94-1.08-33z" fill="#fdd834"/><path id="Shape" d="m14.71 46.33c-2.9277365-.0109381-5.81920182-.6485607-8.48-1.87-.46741679-.246317-.6625659-.8137471-.44553089-1.295459.21703501-.4817118.77135623-.7114685 1.26553089-.524541 7.026663 3.3653032 15.4339167 1.6495371 20.58-4.2 3.94-4.44 6.37-10.55 7.37-18.63.1606064-1.2633235.2274558-2.5368045.2-3.81 0-.5522847.4477153-1 1-1s1 .4477153 1 1c.0381757 1.3700655-.0320431 2.7410047-.21 4.1-1.07 8.45-3.64 14.9-7.86 19.67-3.6320677 4.1687786-8.8909287 6.5611592-14.42 6.56z" fill="#fec108"/><path id="Shape" d="m33 57.15c.0848119 1.0046932.7558559 1.8641004 1.71 2.19 1.5575057.6212249 3.2536461.8112203 4.91.55 3.76-.55 2.66-5.54-.14-6.63-2-.79-4.47.34-5.71 1.86-.5011075.5568019-.7757773 1.2809314-.77 2.03z" fill="#a0522d"/><path id="Shape" d="m39.45 53.26c-.9689735-.352287-2.0310265-.352287-3 0 2.75 1.11 3.83 6 .19 6.6.9679498.1447747 1.9520502.1447747 2.92 0 3.79-.52 2.69-5.51-.11-6.6z" fill="#783e22"/><path id="Shape" d="m21.9 57.15c-.0781166 1.0041261-.7466133 1.8653073-1.7 2.19-1.5575057.6212249-3.2536461.8112203-4.91.55-3.77-.55-2.66-5.54.14-6.63 2-.79 4.46.34 5.71 1.86.4974805.5582983.7685213 1.2822626.76 2.03z" fill="#a0522d"/><path id="Shape" d="m21.14 55.12c-1.25-1.52-3.69-2.65-5.71-1.86 1.0655273.3540884 2.0133339.9940308 2.74 1.85.4905287.5506031.7610818 1.2625849.76 2-.0781166 1.0041261-.7466133 1.8653073-1.7 2.19-.6397084.2660708-1.3124788.444355-2 .53h.08c1.6563539.2612203 3.3524943.0712249 4.91-.55.9533867-.3246927 1.6218834-1.1858739 1.7-2.19-.0117366-.7296797-.2890451-1.4300615-.78-1.97z" fill="#783e22"/><circle id="Oval" cx="49" cy="29" fill="#ffe0b2" r="3"/><circle id="Oval" cx="12.8" cy="26" fill="#ffe0b2" r="3"/><path id="Shape" d="m49 11c4 0 5-1.29 5-1.29-3-2.71-5-7.71-5-7.71s-2 5-5 7.71c0 0 1 1.29 5 1.29z" fill="#7f8e94"/><path id="Shape" d="m49 2c-.4397102 1.04846458-.9405712 2.07022102-1.5 3.06.9209397 1.72054687 2.1014527 3.28894276 3.5 4.65 0 0-.75.95-3.5 1.22.45 0 .94.07 1.5.07 4 0 5-1.29 5-1.29-3-2.71-5-7.71-5-7.71z" fill="#545c60"/><path id="Shape" d="m32 22.5c0 2.5-1.57 4.5-3.5 4.5-1.342931-.0785479-2.5159743-.9348695-3-2.19-.6661559-1.4679604-.6661559-3.1520396 0-4.62l3.24-2.19c1.83.18 3.26 2.11 3.26 4.5z" fill="#f5f5f5"/><path id="Shape" d="m28.75 18-1.22.82c.9759294.9718497 1.5077567 2.3032269 1.47 3.68.0720473 1.6036646-.6828608 3.1323534-2 4.05.4472548.2891123.9674594.4451737 1.5.45 1.93 0 3.5-2 3.5-4.5s-1.43-4.32-3.25-4.5z" fill="#cfd8dc"/><path id="Shape" d="m25 22.5c-.006954.7975773.1638491 1.5866878.5 2.31-.4840257 1.2551305-1.657069 2.1114521-3 2.19h-.33c-1.77-.23-3.17-2.15-3.17-4.5s1.57-4.5 3.5-4.5c.3416403-.0028701.680804.0581794 1 .18l2 2c-.3376066.7263651-.5084449 1.5190548-.5 2.32z" fill="#f5f5f5"/><g fill="#000"><path id="Shape" d="m38.12 61c-1.3169646.0165896-2.6235128-.2351932-3.84-.74-1.2948919-.489507-2.1856406-1.6888923-2.28-3.07-.0133655-.9929268.3430792-1.9553274 1-2.7 1.45-1.77 4.34-3.14 6.85-2.16 2.0794784.9281956 3.3434953 3.0710053 3.15 5.34-.1620544 1.7087423-1.5202841 3.0585619-3.23 3.21-.5462656.0808403-1.097786.1209509-1.65.12zm-.12-7c-1.3661121.0644108-2.6412078.703775-3.51 1.76-.3225207.3712349-.4969633.8482821-.49 1.34.0808973.6188259.5142274 1.1341374 1.11 1.32 1.3833935.5504996 2.8899795.7163623 4.36.48.8050042-.022781 1.4640612-.6473775 1.53-1.45.0896474-1.3749488-.6667541-2.6659795-1.91-3.26-.3484108-.1303659-.7180291-.1947948-1.09-.19z"/><path id="Shape" d="m16.76 61c-.5422195-.0000183-1.0836956-.0401276-1.62-.12-1.7118165-.1507465-3.0733365-1.4996598-3.24-3.21-.1809806-2.2717407 1.0889861-4.4110538 3.17-5.34 2.5-1 5.39.38 6.84 2.16.6569208.7446726 1.0133655 1.7070732 1 2.7-.0927459 1.3878863-.9940967 2.5909938-2.3 3.07-1.2199119.5050656-2.5297754.7568315-3.85.74zm.09-7c-.3619013-.0011213-.7210193.0632489-1.06.19-1.2413083.594892-1.9942211 1.8867319-1.9 3.26.0618702.8084954.7292471 1.4368697 1.54 1.45 1.4733194.2361979 2.9830767.0703665 4.37-.48.59627-.182506 1.02801-.700594 1.1-1.32-.0067508-.4983474-.1993258-.9762188-.54-1.34-.8671843-1.0582376-2.1432368-1.6980817-3.51-1.76z"/><path id="Shape" d="m2.39 45.17c1.33257164 1.9702629 3.02973707 3.6674284 5 5 3.2612983 2.2727943 7.1349576 3.5035789 11.11 3.53 1.2155829-.0003897 2.4281487-.1209763 3.62-.36h.1l.47-.11c4.4884069-1.1898331 8.5352763-3.6561656 11.65-7.1 1.1642992 2.1680869 1.8785872 4.5490471 2.1 7 .046703.5168638.4810348.9121057 1 .91h.09c.5326044-.0476083.9335127-.5057892.91-1.04-.2721178-2.969209-1.1902288-5.8429986-2.69-8.42.23-.29.48-.57.71-.87.62-.82 1.2-1.65 1.72-2.47 1.7469132-2.7128563 3.0940713-5.6631326 4-8.76h.35c1.2065329-.013581 2.3937871-.304407 3.47-.85v20.37c0 1.6568542 1.3431458 3 3 3s3-1.3431458 3-3v-20.38c1.3343346-1.4918314 1.3343346-3.7481686 0-5.24v-14.67c1.0597472-.1297568 2.0437364-.6164612 2.79-1.38.3052426-.40900296.2535221-.98223896-.12-1.33-2.79-2.55-4.67-7.32-4.74-7.37-.1508496-.38168001-.5195914-.63244048-.93-.63244048s-.7791504.25076047-.93.63244048c0 .05-2 4.82-4.74 7.34-.3913839.35125639-.4438292.94563656-.12 1.36.7462636.7635388 1.7302528 1.2502432 2.79 1.38v14.67c-.6385843.7240405-.993762 1.654606-1 2.62.0028384.2860943.0363636.5710584.1.85-.7656921.3678856-1.6007752.5689873-2.45.59 2.41-11.6-3.34-20.44-5.65-23.44-.1581917-.21615414-.2295584-.48377918-.2-.75l.4-2.88c.1207775-.57594977-.0182263-1.17586089-.38-1.64-.3787835-.46081468-.9434894-.72849993-1.54-.73h-3.06c-.5965106.00150007-1.1612165.26918532-1.54.73-.3847474.46481019-.539083 1.07847798-.42 1.67l.6 3.15c-2.86 2-4.33 5.36-5.18 7.7-.42 1.16-.82 2.33-1.22 3.49l-.27-.27-2.53-2.53c-.2443899-.2853762-.6281184-.4096819-.993419-.3218101-.3653005.0878718-.6505193.3730906-.7383911.7383911-.0878718.3653006.0364339.7490291.3218101.993419l.92.93c-2.0143812.9395933-3.2651999 2.999301-3.17 5.22-.0900782 2.0810739.9906314 4.0379302 2.8 5.07-.34.72-.69 1.38-1.05 2-1.2964783-.1325913-2.5145364-.6837011-3.47-1.57.1395711-.2512494.2534794-.5159187.34-.79.5176303-1.3855746.2284008-2.9437031-.7520095-4.051202-.9804102-1.107499-2.4919553-1.5835762-3.9300832-1.2378215-1.4381279.3457546-2.56807327 1.4568989-2.9379073 2.8890235-.65218732 2.1037483.5190342 4.3389039 2.62 5 .3888909.1190422.7932973.1797032 1.2.18.6452241.0020621 1.2808796-.1559927 1.85-.46.08 0 .14-.09.22-.14 1.016105.9754894 2.2717544 1.6654066 3.64 2-.6696447.8553769-1.445943 1.6215934-2.31 2.28-3.5216587 2.4123215-7.59293886 3.9012271-11.84 4.33-2.01479207.2154185-3.50375722 1.9775074-3.38 4-.01648635 1.2078762.49038005 2.3638234 1.39 3.17zm48.61-16.17c0 1.1045695-.8954305 2-2 2s-2-.8954305-2-2 .8954305-2 2-2 2 .8954305 2 2zm-2 24c-.5522847 0-1-.4477153-1-1v-19.14c.6535893.1867429 1.3464107.1867429 2 0v19.14c0 .5522847-.4477153 1-1 1zm0-48.62c.9106937 1.85063143 2.0532053 3.57784006 3.4 5.14-1.0963001.35864397-2.2472608.5211325-3.4.48-1.1527392.0411325-2.3036999-.12135603-3.4-.48 1.3467947-1.56215994 2.4893063-3.28936857 3.4-5.14zm0 7.62h1v13.14c-.6535893-.1867429-1.3464107-.1867429-2 0v-13.14zm-36.79 15.91c-.5115269-.1615931-.936695-.521905-1.18-1-.3159236-.6182759-.2885824-1.3561645.0722303-1.9493651.3608128-.5932006 1.0034655-.9568274 1.6977697-.9606349.2033239.0005131.4054738.0308356.6.09.5115269.1615931.936695.521905 1.18 1 .2451837.4723873.2919693 1.023018.13 1.53-.330548 1.0504829-1.4481258 1.6360937-2.5 1.31zm16.79-8.84c1.16.31 2 1.73 2 3.43 0 1.9-1.15 3.5-2.5 3.5-.9532803-.0912487-1.769761-.7211052-2.1-1.62-.2693135-.5898409-.4058604-1.2316114-.4-1.88-.0018616-.5698092.1103421-1.1342278.33-1.66zm-6.5-.07c.1557456.0029898.310415.0265265.46.07l1.37 1.36c-.4627921 1.4069507-.4381328 2.9287819.07 4.32-.3701413.7211756-1.0912135 1.1955651-1.9 1.25h-.21c-1.29-.17-2.29-1.7-2.29-3.5s1.15-3.5 2.5-3.5zm-5.11 16.25c.5922981-.436822 1.1475176-.9218029 1.66-1.45 2.86-.17 5.13.19 6.39 1 .1620683.1219083.3573718.1916596.56.2.4403997.0009866.8296015-.2862564.9584701-.7073807.1288687-.4211244-.0329363-.8769815-.3984701-1.1226193-1.7839243-.9972581-3.8076285-1.4850227-5.85-1.41.8152253-1.1871742 1.5214339-2.4456313 2.11-3.76 1.0358708-.1039718 1.9936874-.5971759 2.68-1.38.7546332.8743837 1.8452327 1.3869655 3 1.41 2.5-.03 4.5-2.5 4.5-5.53.0587003-1.8162448-.7416404-3.5540216-2.16-4.69l2.25-1.51c.3452864-.1719763.5608706-.5272149.5540119-.912898-.0068586-.3856832-.2349371-.733032-.5861198-.8926229s-.7628432-.1029639-1.0578921.1455209l-5.63 3.78c.4-1.17.8-2.33 1.22-3.49.76-2.08 2.05-5 4.47-6.75.6410821-.448823.9614959-1.23032.82-2l-.66-3.18 3.05.06-.41 2.94c-.1083332.79690648.1078367 1.60394078.6 2.24 2.12 2.76 7.54 11.06 5.19 21.93-.7164033-.2228715-1.3918608-.5606003-2-1-.2858125-.2143594-.6642734-.2599565-.9928203-.1196153s-.5572656.4452995-.6000001.8c-.0427344.3547006.1070079.705256.3928204.9196153.8432864.5780018 1.7756608 1.0137855 2.76 1.29-.8443937 2.8247205-2.0796916 5.5174679-3.67 8-.49.77-1 1.55-1.62 2.33l-.26.31c-.4414614-.6457202-.9223766-1.2635626-1.44-1.85-.3708372-.386084-.9799503-.4116464-1.3818318-.0579907s-.4539702.9610757-.1181682 1.3779907c.5822305.6673693 1.120052 1.3722161 1.61 2.11-2.8967247 3.3494641-6.72664 5.758829-11 6.92l-.53.12c-6.0365435 1.1773709-12.24731041-.9080793-16.35-5.49 1.58663214-.593636 2.61431223-2.1371712 2.55-3.83-.00036475-.8700349-.26161565-1.7199712-.75-2.44 3.6506393-.6906751 7.1093133-2.1607821 10.14-4.31zm-12.89 4.75c.81 0 1.5.92 1.5 2s-.69 2-1.5 2-1.5-.92-1.5-2 .69-2 1.5-2z"/><circle id="Oval" cx="22" cy="23" r="1"/><circle id="Oval" cx="28" cy="23" r="1"/></g></g></g></svg>